<?xml version="1.0" encoding="utf-8"?>
<!-- Generator: Adobe Illustrator 27.9.0, SVG Export Plug-In . SVG Version: 6.00 Build 0)  -->
<svg version="1.1" id="Capa_1" xmlns="http://www.w3.org/2000/svg" xmlns:xlink="http://www.w3.org/1999/xlink" x="0px" y="0px"
	 viewBox="0 0 500 232.99" style="enable-background:new 0 0 500 232.99;" xml:space="preserve">
<g>
	<path d="M186.06,232.99c-0.26,0-0.55-0.03-0.81-0.1c-1.83-0.45-2.95-2.29-2.5-4.11l34.97-142.33c0.35-1.48,1.65-2.53,3.17-2.6
		c1.19-0.05,29.08-0.95,39.77,12.4c4.09,5.1,5.17,11.45,3.2,18.87c-7.87,29.82-42.31,32.07-42.65,32.09
		c-1.87,0.11-3.49-1.33-3.6-3.21c-0.1-1.88,1.33-3.48,3.21-3.6c1.29-0.07,29.86-2.06,36.45-27.01c1.4-5.3,0.76-9.51-1.94-12.89
		c-6.38-7.96-23.14-9.77-31.63-9.86L189.37,230.4C188.99,231.96,187.6,232.99,186.06,232.99"/>
	<path d="M481.59,13.76l-15.95,64.13c5.45-5.28,10.08-11.64,13.29-19.25C487.2,38.95,484.64,22.94,481.59,13.76 M422.05,89.32
		c-8.18,0-15.32,5.44-18.71,14.25c6.59-0.73,19.11-2.65,32.34-7.59c-2.55-3.26-5.86-5.42-9.61-6.23
		C424.71,89.46,423.37,89.32,422.05,89.32 M282.52,93.2c-2.17,7.71-4.21,16.5-5.48,24.41c2.89-4.29,4.6-8.53,5.61-12.11
		C284.36,99.5,283.69,95.62,282.52,93.2 M344.58,93.93c-2.1,7.65-4.05,16.19-5.23,23.87c2.7-3.98,4.71-8.25,5.68-12.68
		C346.1,100.28,345.55,96.59,344.58,93.93 M365.8,153.94c-6.22,7.63-11.45,15.01-13.51,20.33c-7.56,19.59-5.39,35.34-2.59,44.55
		L365.8,153.94z M350.54,232.99c-1.16,0-2.25-0.59-2.88-1.6c-0.62-1-15.16-24.76-1.72-59.58c3.3-8.56,13.47-21.34,23.53-32.67
		l6-24.15c-9.25,15.28-22,31.64-34.2,31.64c-2.85,0-5.25-1.22-6.95-3.52c-1.32-1.8-2.13-4.33-2.55-7.32
		c-5.45,4.4-11.41,7.98-17.11,10.49c-1.16,0.51-2.51,0.33-3.5-0.46c-0.99-0.79-1.46-2.07-1.22-3.3l6.32-32.72
		c-9.65,16.98-24.05,37.41-37.43,37.41c-2.85,0-5.25-1.22-6.95-3.51c-1.52-2.07-2.36-5.1-2.71-8.69
		c-10.35,7.04-25.63,12.2-48.15,12.2c-1.88,0-3.4-1.53-3.4-3.4c0-1.88,1.53-3.41,3.4-3.41c24,0,38.88-6.21,48.1-13.99
		c1-15.66,6.9-35.53,8.55-40.81c0.3-0.93,0.98-1.7,1.87-2.1c0.9-0.4,1.93-0.39,2.81,0.02c0.5,0.22,11.99,5.77,6.87,23.83
		c-1.85,6.51-5.64,14.93-13.46,22.35c-0.15,4.6,0.31,8.18,1.61,9.95c0.41,0.55,0.79,0.75,1.46,0.75c12.94,0,32.8-33.84,42.26-55.16
		c0.7-1.58,2.47-2.39,4.14-1.87c1.65,0.52,2.65,2.2,2.32,3.9l-9.61,49.72c4.66-2.67,9.36-6.09,13.53-10.05
		c0.77-15.82,6.94-36.52,8.61-41.92c0.33-1.06,1.18-1.91,2.24-2.23c1.08-0.34,2.25-0.12,3.12,0.58c0.4,0.3,9.61,7.78,6.24,23.2
		c-1.89,8.7-6.99,16.69-13.52,23.4c-0.07,4.2,0.41,7.44,1.63,9.1c0.41,0.55,0.79,0.75,1.46,0.75c12.93,0,32.15-32.5,41.23-52.97
		c0.72-1.62,2.55-2.42,4.22-1.85c1.67,0.57,2.63,2.33,2.2,4.04l-9.82,39.59c7.5-7.95,13.42-13.73,14.05-14.34
		c1.02-0.99,2.55-1.25,3.83-0.64c1.28,0.6,2.06,1.94,1.95,3.35c-0.79,9.75,7.08,20.48,16.49,22.5c5.04,1.08,10.33-0.4,14.93-4.14
		c4.82-3.92,8.28-9.81,9.72-16.59c1.24-5.79,0.89-11.59-0.98-16.61c-20.15,7.7-38.83,8.57-40.28,8.64
		c-1.05,0.04-2.06-0.42-2.74-1.22c-0.68-0.8-0.94-1.87-0.72-2.9c3.62-16.87,17.11-26.8,32.15-23.59
		c5.95,1.27,11.05,4.86,14.68,10.24c5-2.24,9.97-4.93,14.65-8.2l20.52-82.54c0.33-1.31,1.41-2.31,2.73-2.53
		c1.35-0.23,2.69,0.35,3.43,1.48c0.67,1.01,16.21,25.23,1.72,59.74c-5.08,12.11-13.2,21.25-22.49,28.17
		c-2.92,10.85-7.72,36.57-0.11,46.68c2.13,2.83,5.15,4.22,9.21,4.22c15.66,0,21.38-24.34,21.43-24.58c0.42-1.84,2.24-2.98,4.08-2.58
		c1.83,0.42,2.99,2.24,2.58,4.08c-0.28,1.22-6.98,29.9-28.09,29.9c-6.27,0-11.2-2.34-14.67-6.95c-8.3-11.05-5.27-33.1-2.71-45.32
		c-2.98,1.74-6.02,3.29-9.07,4.67c2.4,6.29,2.89,13.51,1.35,20.65c-1.77,8.3-6.06,15.56-12.09,20.46
		c-6.24,5.07-13.57,7.04-20.66,5.51c-10.16-2.17-18.73-11.5-21.2-21.87c-4.26,4.31-10.63,10.91-17.1,18.12l-21.83,87.98
		c-0.33,1.32-1.42,2.33-2.77,2.54C350.9,232.98,350.72,232.99,350.54,232.99"/>
	<path d="M91.97,147.21c-0.34,0-0.69-0.05-1.02-0.16c-1.8-0.58-2.79-2.49-2.22-4.28c5.83-18.34,11.99-46.97,7.44-53.2
		c-0.37-0.51-0.74-0.7-1.36-0.7c-11.03,0-31.81,33.91-42.33,55.28c-0.73,1.5-2.43,2.25-4.04,1.76c-1.6-0.47-2.61-2.05-2.4-3.7
		c2.4-18.56,3.56-47.24-1.4-52.87c-0.41-0.47-0.65-0.47-0.76-0.47c-4.74,1.63-18.82,30.12-29,55.56c-0.7,1.75-2.68,2.6-4.43,1.9
		c-1.75-0.7-2.6-2.69-1.9-4.43c8.96-22.35,25.45-59.85,35.34-59.85c2.24,0,4.28,0.97,5.89,2.8c5.73,6.53,5.71,26,4.72,40.95
		c10.14-17.99,26.98-43.75,40.32-43.75c2.81,0,5.19,1.21,6.86,3.49c8.23,11.26-3.92,51.37-6.44,59.3
		C94.76,146.28,93.42,147.21,91.97,147.21"/>
	<path d="M172.86,152.74c-5.82,6.57-10.86,13.82-13.84,21.52c-7.57,19.59-5.39,35.35-2.6,44.55L172.86,152.74z M157.26,232.99
		c-1.16,0-2.25-0.59-2.88-1.6c-0.63-1-15.16-24.78-1.71-59.58c4.73-12.27,13.71-23.07,23.47-32.28l12.33-49.58
		c-6.27,0.4-11.43,0.92-16,1.63c-1.83,0.3-3.6-0.99-3.89-2.85c-0.29-1.86,0.99-3.61,2.85-3.9c5.86-0.89,12.64-1.52,21.28-1.95
		c1.06-0.05,2.12,0.4,2.8,1.23c0.68,0.84,0.93,1.95,0.67,2.99l-11.06,44.48c2.8-2.32,5.58-4.52,8.25-6.58
		c1.49-1.15,3.63-0.86,4.78,0.61c1.14,1.49,0.87,3.63-0.62,4.79c-4.69,3.61-10.04,7.91-15.29,12.78l-21.69,87.2
		c-0.34,1.33-1.42,2.33-2.77,2.54C157.61,232.98,157.44,232.99,157.26,232.99"/>
	<path d="M139.28,109.54c-2.54,3.99-4.52,8.73-6,14.33c-1.75,6.61-1.1,10.76,0.05,13.29C135.8,128.38,138.1,118.22,139.28,109.54
		 M91.62,147.21c-0.46,0-0.93-0.09-1.38-0.3c-1.72-0.77-2.5-2.77-1.73-4.5c2.69-6.06,26.91-59.21,48.49-59.21
		c2.85,0,5.25,1.22,6.95,3.53c1.19,1.61,1.97,3.8,2.41,6.4c2.57-1.6,5.37-2.97,8.41-4.12c1.76-0.67,3.73,0.21,4.4,1.97
		c0.67,1.75-0.21,3.73-1.97,4.4c-3.95,1.5-7.37,3.39-10.35,5.73c-0.36,16.01-6.93,38.1-8.68,43.7c-0.29,0.93-0.96,1.68-1.84,2.08
		c-0.87,0.4-1.89,0.42-2.77,0.04c-0.49-0.23-11.99-5.47-6.87-24.8c2.74-10.35,7.1-18.29,13.39-24.18c-0.09-3.26-0.59-5.77-1.63-7.18
		c-0.41-0.55-0.79-0.74-1.46-0.74c-12.94,0-32.79,33.84-42.26,55.15C94.17,146.46,92.93,147.21,91.62,147.21"/>
	<path d="M191.02,72.34c0-2.45,1.98-4.44,4.43-4.44c2.45,0,4.44,2,4.44,4.44c0,2.45-1.99,4.44-4.44,4.44
		C193,76.78,191.02,74.79,191.02,72.34"/>
	<path d="M349.12,176.45H202.41c-1.88,0-3.41-1.53-3.41-3.41c0-1.88,1.53-3.4,3.41-3.4h146.71c1.88,0,3.41,1.53,3.41,3.4
		C352.53,174.92,351,176.45,349.12,176.45"/>
	<path d="M155.84,176.45H3.41c-1.89,0-3.41-1.53-3.41-3.41c0-1.88,1.52-3.4,3.41-3.4h152.43c1.89,0,3.41,1.53,3.41,3.4
		C159.24,174.92,157.72,176.45,155.84,176.45"/>
	<path d="M479.01,176.45H366.66c-1.88,0-3.41-1.53-3.41-3.41c0-1.88,1.53-3.4,3.41-3.4h112.35c1.89,0,3.41,1.53,3.41,3.4
		C482.43,174.92,480.9,176.45,479.01,176.45"/>
</g>
</svg>
